<svg width="395" height="57" viewBox="0 0 395 57" fill="none" xmlns="http://www.w3.org/2000/svg">
<path d="M11.616 9.32V11.552H4.536V16.472H10.056V18.704H4.536V26H1.8V9.32H11.616ZM19.2876 14.696C19.6876 14.024 20.2156 13.504 20.8716 13.136C21.5436 12.752 22.3356 12.56 23.2476 12.56V15.392H22.5516C21.4796 15.392 20.6636 15.664 20.1036 16.208C19.5596 16.752 19.2876 17.696 19.2876 19.04V26H16.5516V12.776H19.2876V14.696ZM40.2825 19.064C40.2825 19.56 40.2505 20.008 40.1865 20.408H30.0825C30.1625 21.464 30.5545 22.312 31.2585 22.952C31.9625 23.592 32.8265 23.912 33.8505 23.912C35.3225 23.912 36.3625 23.296 36.9705 22.064H39.9225C39.5225 23.28 38.7945 24.28 37.7385 25.064C36.6985 25.832 35.4025 26.216 33.8505 26.216C32.5865 26.216 31.4505 25.936 30.4425 25.376C29.4505 24.8 28.6665 24 28.0905 22.976C27.5305 21.936 27.2505 20.736 27.2505 19.376C27.2505 18.016 27.5225 16.824 28.0665 15.8C28.6265 14.76 29.4025 13.96 30.3945 13.4C31.4025 12.84 32.5545 12.56 33.8505 12.56C35.0985 12.56 36.2105 12.832 37.1865 13.376C38.1625 13.92 38.9225 14.688 39.4665 15.68C40.0105 16.656 40.2825 17.784 40.2825 19.064ZM37.4265 18.2C37.4105 17.192 37.0505 16.384 36.3465 15.776C35.6425 15.168 34.7705 14.864 33.7305 14.864C32.7865 14.864 31.9785 15.168 31.3065 15.776C30.6345 16.368 30.2345 17.176 30.1065 18.2H37.4265ZM57.495 19.064C57.495 19.56 57.463 20.008 57.399 20.408H47.295C47.375 21.464 47.767 22.312 48.471 22.952C49.175 23.592 50.039 23.912 51.063 23.912C52.535 23.912 53.575 23.296 54.183 22.064H57.135C56.735 23.28 56.007 24.28 54.951 25.064C53.911 25.832 52.615 26.216 51.063 26.216C49.799 26.216 48.663 25.936 47.655 25.376C46.663 24.8 45.879 24 45.303 22.976C44.743 21.936 44.463 20.736 44.463 19.376C44.463 18.016 44.735 16.824 45.279 15.8C45.839 14.76 46.615 13.96 47.607 13.4C48.615 12.84 49.767 12.56 51.063 12.56C52.311 12.56 53.423 12.832 54.399 13.376C55.375 13.92 56.135 14.688 56.679 15.68C57.223 16.656 57.495 17.784 57.495 19.064ZM54.639 18.2C54.623 17.192 54.263 16.384 53.559 15.776C52.855 15.168 51.983 14.864 50.943 14.864C49.999 14.864 49.191 15.168 48.519 15.776C47.847 16.368 47.447 17.176 47.319 18.2H54.639ZM72.6435 22.592H65.6595L64.4595 26H61.6035L67.5795 9.296H70.7475L76.7235 26H73.8435L72.6435 22.592ZM71.8755 20.36L69.1635 12.608L66.4275 20.36H71.8755ZM90.3859 26L86.5459 19.328H84.4579V26H81.7219V9.32H87.4819C88.7619 9.32 89.8419 9.544 90.7219 9.992C91.6179 10.44 92.2819 11.04 92.7139 11.792C93.1619 12.544 93.3859 13.384 93.3859 14.312C93.3859 15.4 93.0659 16.392 92.4259 17.288C91.8019 18.168 90.8339 18.768 89.5219 19.088L93.6499 26H90.3859ZM84.4579 17.144H87.4819C88.5059 17.144 89.2739 16.888 89.7859 16.376C90.3139 15.864 90.5779 15.176 90.5779 14.312C90.5779 13.448 90.3219 12.776 89.8099 12.296C89.2979 11.8 88.5219 11.552 87.4819 11.552H84.4579V17.144ZM98.3739 17.624C98.3739 15.992 98.7499 14.528 99.5019 13.232C100.27 11.936 101.302 10.928 102.598 10.208C103.91 9.472 105.342 9.104 106.894 9.104C108.67 9.104 110.246 9.544 111.622 10.424C113.014 11.288 114.022 12.52 114.646 14.12H111.358C110.926 13.24 110.326 12.584 109.558 12.152C108.79 11.72 107.902 11.504 106.894 11.504C105.79 11.504 104.806 11.752 103.942 12.248C103.078 12.744 102.398 13.456 101.902 14.384C101.422 15.312 101.182 16.392 101.182 17.624C101.182 18.856 101.422 19.936 101.902 20.864C102.398 21.792 103.078 22.512 103.942 23.024C104.806 23.52 105.79 23.768 106.894 23.768C107.902 23.768 108.79 23.552 109.558 23.12C110.326 22.688 110.926 22.032 111.358 21.152H114.646C114.022 22.752 113.014 23.984 111.622 24.848C110.246 25.712 108.67 26.144 106.894 26.144C105.326 26.144 103.894 25.784 102.598 25.064C101.302 24.328 100.27 23.312 99.5019 22.016C98.7499 20.72 98.3739 19.256 98.3739 17.624ZM125.048 26.216C124.008 26.216 123.072 26.032 122.24 25.664C121.424 25.28 120.776 24.768 120.296 24.128C119.816 23.472 119.56 22.744 119.528 21.944H122.36C122.408 22.504 122.672 22.976 123.152 23.36C123.648 23.728 124.264 23.912 125 23.912C125.768 23.912 126.36 23.768 126.776 23.48C127.208 23.176 127.424 22.792 127.424 22.328C127.424 21.832 127.184 21.464 126.704 21.224C126.24 20.984 125.496 20.72 124.472 20.432C123.48 20.16 122.672 19.896 122.048 19.64C121.424 19.384 120.88 18.992 120.416 18.464C119.968 17.936 119.744 17.24 119.744 16.376C119.744 15.672 119.952 15.032 120.368 14.456C120.784 13.864 121.376 13.4 122.144 13.064C122.928 12.728 123.824 12.56 124.832 12.56C126.336 12.56 127.544 12.944 128.456 13.712C129.384 14.464 129.88 15.496 129.944 16.808H127.208C127.16 16.216 126.92 15.744 126.488 15.392C126.056 15.04 125.472 14.864 124.736 14.864C124.016 14.864 123.464 15 123.08 15.272C122.696 15.544 122.504 15.904 122.504 16.352C122.504 16.704 122.632 17 122.888 17.24C123.144 17.48 123.456 17.672 123.824 17.816C124.192 17.944 124.736 18.112 125.456 18.32C126.416 18.576 127.2 18.84 127.808 19.112C128.432 19.368 128.968 19.752 129.416 20.264C129.864 20.776 130.096 21.456 130.112 22.304C130.112 23.056 129.904 23.728 129.488 24.32C129.072 24.912 128.48 25.376 127.712 25.712C126.96 26.048 126.072 26.216 125.048 26.216ZM155.767 14.288C155.767 15.136 155.567 15.936 155.167 16.688C154.767 17.44 154.127 18.056 153.247 18.536C152.367 19 151.239 19.232 149.863 19.232H146.839V26H144.103V9.32H149.863C151.143 9.32 152.223 9.544 153.103 9.992C153.999 10.424 154.663 11.016 155.095 11.768C155.543 12.52 155.767 13.36 155.767 14.288ZM149.863 17C150.903 17 151.679 16.768 152.191 16.304C152.703 15.824 152.959 15.152 152.959 14.288C152.959 12.464 151.927 11.552 149.863 11.552H146.839V17H149.863ZM174.097 9.32V26H171.361V18.704H163.513V26H160.777V9.32H163.513V16.472H171.361V9.32H174.097ZM190.154 22.592H183.17L181.97 26H179.114L185.09 9.296H188.258L194.234 26H191.354L190.154 22.592ZM189.386 20.36L186.674 12.608L183.938 20.36H189.386ZM207.897 26L204.057 19.328H201.969V26H199.233V9.32H204.993C206.273 9.32 207.353 9.544 208.233 9.992C209.129 10.44 209.793 11.04 210.225 11.792C210.673 12.544 210.897 13.384 210.897 14.312C210.897 15.4 210.577 16.392 209.937 17.288C209.313 18.168 208.345 18.768 207.033 19.088L211.161 26H207.897ZM201.969 17.144H204.993C206.017 17.144 206.785 16.888 207.297 16.376C207.825 15.864 208.089 15.176 208.089 14.312C208.089 13.448 207.833 12.776 207.321 12.296C206.809 11.8 206.033 11.552 204.993 11.552H201.969V17.144ZM234.365 9.32V26H231.629V14.576L226.541 26H224.645L219.533 14.576V26H216.797V9.32H219.749L225.605 22.4L231.437 9.32H234.365ZM250.417 22.592H243.433L242.233 26H239.377L245.353 9.296H248.521L254.497 26H251.617L250.417 22.592ZM249.649 20.36L246.937 12.608L244.201 20.36H249.649ZM273.626 26.168C272.506 26.168 271.498 25.976 270.602 25.592C269.706 25.192 269.002 24.632 268.49 23.912C267.978 23.192 267.722 22.352 267.722 21.392H270.65C270.714 22.112 270.994 22.704 271.49 23.168C272.002 23.632 272.714 23.864 273.626 23.864C274.57 23.864 275.306 23.64 275.834 23.192C276.362 22.728 276.626 22.136 276.626 21.416C276.626 20.856 276.458 20.4 276.122 20.048C275.802 19.696 275.394 19.424 274.898 19.232C274.418 19.04 273.746 18.832 272.882 18.608C271.794 18.32 270.906 18.032 270.218 17.744C269.546 17.44 268.97 16.976 268.49 16.352C268.01 15.728 267.77 14.896 267.77 13.856C267.77 12.896 268.01 12.056 268.49 11.336C268.97 10.616 269.642 10.064 270.506 9.68C271.37 9.296 272.37 9.104 273.506 9.104C275.122 9.104 276.442 9.512 277.466 10.328C278.506 11.128 279.082 12.232 279.194 13.64H276.17C276.122 13.032 275.834 12.512 275.306 12.08C274.778 11.648 274.082 11.432 273.218 11.432C272.434 11.432 271.794 11.632 271.298 12.032C270.802 12.432 270.554 13.008 270.554 13.76C270.554 14.272 270.706 14.696 271.01 15.032C271.33 15.352 271.73 15.608 272.21 15.8C272.69 15.992 273.346 16.2 274.178 16.424C275.282 16.728 276.178 17.032 276.866 17.336C277.57 17.64 278.162 18.112 278.642 18.752C279.138 19.376 279.386 20.216 279.386 21.272C279.386 22.12 279.154 22.92 278.69 23.672C278.242 24.424 277.578 25.032 276.698 25.496C275.834 25.944 274.81 26.168 273.626 26.168ZM287.75 11.528V16.424H293.51V18.656H287.75V23.768H294.23V26H285.014V9.296H294.23V11.528H287.75ZM308.664 26L304.824 19.328H302.736V26H300V9.32H305.76C307.04 9.32 308.12 9.544 309 9.992C309.896 10.44 310.56 11.04 310.992 11.792C311.44 12.544 311.664 13.384 311.664 14.312C311.664 15.4 311.344 16.392 310.704 17.288C310.08 18.168 309.112 18.768 307.8 19.088L311.928 26H308.664ZM302.736 17.144H305.76C306.784 17.144 307.552 16.888 308.064 16.376C308.592 15.864 308.856 15.176 308.856 14.312C308.856 13.448 308.6 12.776 308.088 12.296C307.576 11.8 306.8 11.552 305.76 11.552H302.736V17.144ZM331.94 9.32L325.676 26H322.508L316.22 9.32H319.148L324.092 23.192L329.06 9.32H331.94ZM339.364 9.32V26H336.628V9.32H339.364ZM344.444 17.624C344.444 15.992 344.82 14.528 345.572 13.232C346.34 11.936 347.372 10.928 348.668 10.208C349.98 9.472 351.412 9.104 352.964 9.104C354.74 9.104 356.316 9.544 357.692 10.424C359.084 11.288 360.092 12.52 360.716 14.12H357.428C356.996 13.24 356.396 12.584 355.628 12.152C354.86 11.72 353.972 11.504 352.964 11.504C351.86 11.504 350.876 11.752 350.012 12.248C349.148 12.744 348.468 13.456 347.972 14.384C347.492 15.312 347.252 16.392 347.252 17.624C347.252 18.856 347.492 19.936 347.972 20.864C348.468 21.792 349.148 22.512 350.012 23.024C350.876 23.52 351.86 23.768 352.964 23.768C353.972 23.768 354.86 23.552 355.628 23.12C356.396 22.688 356.996 22.032 357.428 21.152H360.716C360.092 22.752 359.084 23.984 357.692 24.848C356.316 25.712 354.74 26.144 352.964 26.144C351.396 26.144 349.964 25.784 348.668 25.064C347.372 24.328 346.34 23.312 345.572 22.016C344.82 20.72 344.444 19.256 344.444 17.624ZM369.055 11.528V16.424H374.815V18.656H369.055V23.768H375.535V26H366.319V9.296H375.535V11.528H369.055ZM386.801 26.168C385.681 26.168 384.673 25.976 383.777 25.592C382.881 25.192 382.177 24.632 381.665 23.912C381.153 23.192 380.897 22.352 380.897 21.392H383.825C383.889 22.112 384.169 22.704 384.665 23.168C385.177 23.632 385.889 23.864 386.801 23.864C387.745 23.864 388.481 23.64 389.009 23.192C389.537 22.728 389.801 22.136 389.801 21.416C389.801 20.856 389.633 20.4 389.297 20.048C388.977 19.696 388.569 19.424 388.073 19.232C387.593 19.04 386.921 18.832 386.057 18.608C384.969 18.32 384.081 18.032 383.393 17.744C382.721 17.44 382.145 16.976 381.665 16.352C381.185 15.728 380.945 14.896 380.945 13.856C380.945 12.896 381.185 12.056 381.665 11.336C382.145 10.616 382.817 10.064 383.681 9.68C384.545 9.296 385.545 9.104 386.681 9.104C388.297 9.104 389.617 9.512 390.641 10.328C391.681 11.128 392.257 12.232 392.369 13.64H389.345C389.297 13.032 389.009 12.512 388.481 12.08C387.953 11.648 387.257 11.432 386.393 11.432C385.609 11.432 384.969 11.632 384.473 12.032C383.977 12.432 383.729 13.008 383.729 13.76C383.729 14.272 383.881 14.696 384.185 15.032C384.505 15.352 384.905 15.608 385.385 15.8C385.865 15.992 386.521 16.2 387.353 16.424C388.457 16.728 389.353 17.032 390.041 17.336C390.745 17.64 391.337 18.112 391.817 18.752C392.313 19.376 392.561 20.216 392.561 21.272C392.561 22.12 392.329 22.92 391.865 23.672C391.417 24.424 390.753 25.032 389.873 25.496C389.009 25.944 387.985 26.168 386.801 26.168ZM7.76 47.344H2.672L1.696 50H0.512L4.592 38.96H5.856L9.92 50H8.736L7.76 47.344ZM7.424 46.416L5.216 40.368L3.008 46.416H7.424ZM35.1001 42.032C35.1001 42.992 34.7855 43.7653 34.1561 44.352C33.5268 44.9387 32.5828 45.232 31.3241 45.232H29.0681V50H27.9481V38.816H31.3241C32.5721 38.816 33.5108 39.1093 34.1401 39.696C34.7801 40.2827 35.1001 41.0613 35.1001 42.032ZM31.3241 44.272C33.0735 44.272 33.9481 43.5253 33.9481 42.032C33.9481 41.2853 33.7401 40.72 33.3241 40.336C32.9081 39.952 32.2415 39.76 31.3241 39.76H29.0681V44.272H31.3241ZM49.3794 47.344H44.2914L43.3154 50H42.1314L46.2114 38.96H47.4754L51.5394 50H50.3554L49.3794 47.344ZM49.0434 46.416L46.8354 40.368L44.6274 46.416H49.0434ZM62.6489 50.112C61.9129 50.112 61.2622 49.984 60.6969 49.728C60.1422 49.472 59.7049 49.1147 59.3849 48.656C59.0649 48.1973 58.8942 47.6853 58.8729 47.12H60.0569C60.1102 47.664 60.3502 48.144 60.7769 48.56C61.2035 48.9653 61.8275 49.168 62.6489 49.168C63.4062 49.168 64.0035 48.976 64.4409 48.592C64.8889 48.1973 65.1129 47.7013 65.1129 47.104C65.1129 46.624 64.9902 46.24 64.7449 45.952C64.4995 45.6533 64.1955 45.4347 63.8329 45.296C63.4702 45.1467 62.9689 44.9867 62.3289 44.816C61.5822 44.6133 60.9902 44.416 60.5529 44.224C60.1155 44.032 59.7422 43.7333 59.4329 43.328C59.1235 42.9227 58.9689 42.3733 58.9689 41.68C58.9689 41.104 59.1182 40.592 59.4169 40.144C59.7155 39.6853 60.1369 39.328 60.6809 39.072C61.2249 38.816 61.8489 38.688 62.5529 38.688C63.5875 38.688 64.4195 38.944 65.0489 39.456C65.6889 39.9573 66.0569 40.608 66.1529 41.408H64.9369C64.8622 40.9493 64.6115 40.544 64.1849 40.192C63.7582 39.8293 63.1822 39.648 62.4569 39.648C61.7849 39.648 61.2249 39.8293 60.7769 40.192C60.3289 40.544 60.1049 41.0293 60.1049 41.648C60.1049 42.1173 60.2275 42.496 60.4729 42.784C60.7182 43.072 61.0222 43.2907 61.3849 43.44C61.7582 43.5893 62.2595 43.7493 62.8889 43.92C63.6142 44.1227 64.2009 44.3253 64.6489 44.528C65.0969 44.72 65.4755 45.0187 65.7849 45.424C66.0942 45.8293 66.2489 46.3733 66.2489 47.056C66.2489 47.5787 66.1102 48.0747 65.8329 48.544C65.5555 49.0133 65.1449 49.392 64.6009 49.68C64.0569 49.968 63.4062 50.112 62.6489 50.112ZM77.7251 50.112C76.9891 50.112 76.3385 49.984 75.7731 49.728C75.2185 49.472 74.7811 49.1147 74.4611 48.656C74.1411 48.1973 73.9705 47.6853 73.9491 47.12H75.1331C75.1865 47.664 75.4265 48.144 75.8531 48.56C76.2798 48.9653 76.9038 49.168 77.7251 49.168C78.4825 49.168 79.0798 48.976 79.5171 48.592C79.9651 48.1973 80.1891 47.7013 80.1891 47.104C80.1891 46.624 80.0665 46.24 79.8211 45.952C79.5758 45.6533 79.2718 45.4347 78.9091 45.296C78.5465 45.1467 78.0451 44.9867 77.4051 44.816C76.6585 44.6133 76.0665 44.416 75.6291 44.224C75.1918 44.032 74.8185 43.7333 74.5091 43.328C74.1998 42.9227 74.0451 42.3733 74.0451 41.68C74.0451 41.104 74.1945 40.592 74.4931 40.144C74.7918 39.6853 75.2131 39.328 75.7571 39.072C76.3011 38.816 76.9251 38.688 77.6291 38.688C78.6638 38.688 79.4958 38.944 80.1251 39.456C80.7651 39.9573 81.1331 40.608 81.2291 41.408H80.0131C79.9385 40.9493 79.6878 40.544 79.2611 40.192C78.8345 39.8293 78.2585 39.648 77.5331 39.648C76.8611 39.648 76.3011 39.8293 75.8531 40.192C75.4051 40.544 75.1811 41.0293 75.1811 41.648C75.1811 42.1173 75.3038 42.496 75.5491 42.784C75.7945 43.072 76.0985 43.2907 76.4611 43.44C76.8345 43.5893 77.3358 43.7493 77.9651 43.92C78.6905 44.1227 79.2771 44.3253 79.7251 44.528C80.1731 44.72 80.5518 45.0187 80.8611 45.424C81.1705 45.8293 81.3251 46.3733 81.3251 47.056C81.3251 47.5787 81.1865 48.0747 80.9091 48.544C80.6318 49.0133 80.2211 49.392 79.6771 49.68C79.1331 49.968 78.4825 50.112 77.7251 50.112ZM90.5294 38.816V50H89.4094V38.816H90.5294ZM104.01 50.112C102.975 50.112 102.036 49.872 101.194 49.392C100.351 48.9013 99.6843 48.224 99.1936 47.36C98.7136 46.4853 98.4736 45.4987 98.4736 44.4C98.4736 43.3013 98.7136 42.32 99.1936 41.456C99.6843 40.5813 100.351 39.904 101.194 39.424C102.036 38.9333 102.975 38.688 104.01 38.688C105.055 38.688 105.999 38.9333 106.842 39.424C107.684 39.904 108.346 40.5813 108.826 41.456C109.306 42.32 109.546 43.3013 109.546 44.4C109.546 45.4987 109.306 46.4853 108.826 47.36C108.346 48.224 107.684 48.9013 106.842 49.392C105.999 49.872 105.055 50.112 104.01 50.112ZM104.01 49.136C104.842 49.136 105.588 48.944 106.25 48.56C106.911 48.176 107.434 47.6267 107.818 46.912C108.202 46.1867 108.394 45.3493 108.394 44.4C108.394 43.4507 108.202 42.6187 107.818 41.904C107.434 41.1893 106.911 40.64 106.25 40.256C105.588 39.872 104.842 39.68 104.01 39.68C103.178 39.68 102.431 39.872 101.77 40.256C101.108 40.64 100.586 41.1893 100.202 41.904C99.8176 42.6187 99.6256 43.4507 99.6256 44.4C99.6256 45.3493 99.8176 46.1867 100.202 46.912C100.586 47.6267 101.108 48.176 101.77 48.56C102.431 48.944 103.178 49.136 104.01 49.136ZM125.947 50H124.827L118.635 40.592V50H117.515V38.816H118.635L124.827 48.208V38.816H125.947V50ZM150.762 38.816V39.744H145.834V43.92H149.994V44.848H145.834V50H144.714V38.816H150.762ZM163.549 50.112C162.514 50.112 161.576 49.872 160.733 49.392C159.89 48.9013 159.224 48.224 158.733 47.36C158.253 46.4853 158.013 45.4987 158.013 44.4C158.013 43.3013 158.253 42.32 158.733 41.456C159.224 40.5813 159.89 39.904 160.733 39.424C161.576 38.9333 162.514 38.688 163.549 38.688C164.594 38.688 165.538 38.9333 166.381 39.424C167.224 39.904 167.885 40.5813 168.365 41.456C168.845 42.32 169.085 43.3013 169.085 44.4C169.085 45.4987 168.845 46.4853 168.365 47.36C167.885 48.224 167.224 48.9013 166.381 49.392C165.538 49.872 164.594 50.112 163.549 50.112ZM163.549 49.136C164.381 49.136 165.128 48.944 165.789 48.56C166.45 48.176 166.973 47.6267 167.357 46.912C167.741 46.1867 167.933 45.3493 167.933 44.4C167.933 43.4507 167.741 42.6187 167.357 41.904C166.973 41.1893 166.45 40.64 165.789 40.256C165.128 39.872 164.381 39.68 163.549 39.68C162.717 39.68 161.97 39.872 161.309 40.256C160.648 40.64 160.125 41.1893 159.741 41.904C159.357 42.6187 159.165 43.4507 159.165 44.4C159.165 45.3493 159.357 46.1867 159.741 46.912C160.125 47.6267 160.648 48.176 161.309 48.56C161.97 48.944 162.717 49.136 163.549 49.136ZM183.006 50L180.238 45.328H178.174V50H177.054V38.816H180.414C181.662 38.816 182.606 39.1147 183.246 39.712C183.897 40.3093 184.222 41.0933 184.222 42.064C184.222 42.8747 183.988 43.568 183.518 44.144C183.06 44.7093 182.377 45.0773 181.47 45.248L184.35 50H183.006ZM178.174 44.416H180.43C181.305 44.416 181.961 44.2027 182.398 43.776C182.846 43.3493 183.07 42.7787 183.07 42.064C183.07 41.328 182.857 40.7627 182.43 40.368C182.004 39.9627 181.332 39.76 180.414 39.76H178.174V44.416ZM207.908 44.224C208.537 44.3413 209.07 44.6613 209.508 45.184C209.945 45.7067 210.164 46.3147 210.164 47.008C210.164 47.5733 210.02 48.0853 209.732 48.544C209.454 48.992 209.044 49.3493 208.5 49.616C207.956 49.872 207.305 50 206.548 50H202.676V38.816H206.436C207.566 38.816 208.425 39.0773 209.012 39.6C209.609 40.1227 209.908 40.8 209.908 41.632C209.908 42.3253 209.721 42.8907 209.348 43.328C208.974 43.7547 208.494 44.0533 207.908 44.224ZM203.796 43.76H206.404C207.161 43.76 207.742 43.584 208.148 43.232C208.564 42.8693 208.772 42.3733 208.772 41.744C208.772 41.1253 208.564 40.64 208.148 40.288C207.742 39.936 207.145 39.76 206.356 39.76H203.796V43.76ZM206.468 49.056C207.278 49.056 207.908 48.864 208.356 48.48C208.814 48.096 209.044 47.568 209.044 46.896C209.044 46.224 208.804 45.6907 208.324 45.296C207.854 44.8907 207.22 44.688 206.42 44.688H203.796V49.056H206.468ZM219.263 39.728V43.904H223.503V44.832H219.263V49.072H223.983V50H218.143V38.8H223.983V39.728H219.263ZM238.653 38.816V39.744H235.549V50H234.429V39.744H231.309V38.816H238.653ZM252.886 38.816V39.744H249.782V50H248.662V39.744H245.542V38.816H252.886ZM261.694 39.728V43.904H265.934V44.832H261.694V49.072H266.414V50H260.574V38.8H266.414V39.728H261.694ZM280.493 50L277.725 45.328H275.661V50H274.541V38.816H277.901C279.149 38.816 280.093 39.1147 280.733 39.712C281.384 40.3093 281.709 41.0933 281.709 42.064C281.709 42.8747 281.475 43.568 281.005 44.144C280.547 44.7093 279.864 45.0773 278.957 45.248L281.837 50H280.493ZM275.661 44.416H277.917C278.792 44.416 279.448 44.2027 279.885 43.776C280.333 43.3493 280.557 42.7787 280.557 42.064C280.557 41.328 280.344 40.7627 279.917 40.368C279.491 39.9627 278.819 39.76 277.901 39.76H275.661V44.416ZM308.467 38.816V50H307.347V44.768H301.283V50H300.163V38.816H301.283V43.84H307.347V38.816H308.467ZM318.062 39.728V43.904H322.302V44.832H318.062V49.072H322.782V50H316.942V38.8H322.782V39.728H318.062ZM337.389 47.344H332.301L331.325 50H330.141L334.221 38.96H335.485L339.549 50H338.365L337.389 47.344ZM337.053 46.416L334.845 40.368L332.637 46.416H337.053ZM348.386 49.088H352.402V50H347.266V38.816H348.386V49.088ZM366.465 38.816V39.744H363.361V50H362.241V39.744H359.121V38.816H366.465ZM382.457 38.816V50H381.337V44.768H375.273V50H374.153V38.816H375.273V43.84H381.337V38.816H382.457Z" fill="white"/>
</svg>
